<svg width="24" height="24" viewBox="0 0 24 24" fill="none" xmlns="http://www.w3.org/2000/svg">
<path d="M6.67378 7.37189C6.55113 5.60924 8.89357 3.49401 9.59496 3.39645C10.2964 3.2989 12.8005 5.02768 13.0374 6.91226C13.2914 8.93188 11.9039 9.67435 10.1469 11.3283C8.31154 10.1115 6.79643 9.13453 6.67378 7.37189Z" fill="#9900FF"/>
<path d="M3.46963 11.6573C2.20112 10.4521 2.50125 7.27785 2.94943 6.71958C3.39761 6.1613 6.38668 5.68859 7.82041 6.9036C9.35688 8.20568 8.83776 9.71227 8.65774 12.1426C6.5005 12.5258 4.73815 12.8624 3.46963 11.6573Z" fill="#A621FF"/>
<path d="M3.68145 16.7781C1.94939 16.6856 0.176652 14.0574 0.167769 13.3362C0.158887 12.6151 2.15046 10.2955 4.01533 10.2874C6.01383 10.2787 6.56666 11.7727 7.96202 13.7524C6.55122 15.4587 5.4135 16.8706 3.68145 16.7781Z" fill="#AD33FF"/>
<path d="M8.02883 20.5183C6.84595 21.8107 3.73029 21.5048 3.18234 21.0482C2.63438 20.5916 2.17047 17.5463 3.36308 16.0856C4.64115 14.5202 6.11989 15.0491 8.5053 15.2326C8.8814 17.4305 9.21171 19.226 8.02883 20.5183Z" fill="#BD5AFF"/>
<path d="M13.0909 20.2493C13.0001 22.0139 10.4204 23.82 9.71256 23.8291C9.00471 23.8381 6.72799 21.8091 6.72001 19.9091C6.71147 17.873 8.17796 17.3098 10.121 15.8882C11.7958 17.3255 13.1817 18.4846 13.0909 20.2493Z" fill="#D28FFF"/>
<path d="M17.4245 2.04039C18.8811 1.08042 21.8343 2.14746 22.2577 2.72555C22.6812 3.30363 22.4065 6.36987 20.9004 7.49057C19.2863 8.69157 17.9761 7.81321 15.703 7.0454C15.8611 4.82225 15.9679 3.00036 17.4245 2.04039Z" fill="#00E1A8"/>
<path d="M16.8384 16.0814C18.0212 17.3737 17.5044 20.519 17.0191 21.044C16.5338 21.5691 13.5196 21.8281 12.1726 20.5141C10.7291 19.106 11.3501 17.64 11.6961 15.2284C13.8744 14.9995 15.6555 14.789 16.8384 16.0814Z" fill="#97DAC9"/>
<path d="M16.1487 10.1569C17.878 10.0208 19.969 12.3938 20.0692 13.1077C20.1694 13.8217 18.4886 16.3838 16.6403 16.6373C14.6597 16.9088 13.9221 15.5 12.2875 13.7205C13.4702 11.8429 14.4194 10.2931 16.1487 10.1569Z" fill="#54E4C0"/>
</svg>
